<?xml version="1.0" encoding="utf-8"?>
<!-- Generator: Adobe Illustrator 24.1.1, SVG Export Plug-In . SVG Version: 6.00 Build 0)  -->
<svg version="1.1" id="Laag_1" xmlns="http://www.w3.org/2000/svg" xmlns:xlink="http://www.w3.org/1999/xlink" x="0px" y="0px"
	 viewBox="0 0 72 70" style="enable-background:new 0 0 72 70;" xml:space="preserve">
<style type="text/css">
	.st0{fill:#FFFFFF;}
</style>
<path id="Logo_5_" class="st0" d="M39.039875,33.5766869c-4.5098953,0.8277588-8.2919178-0.254879-11.189476-1.8971729
	c4.5451622-0.4201908,6.5131683-3.0046597,11.2335587-3.9468346c3.5036011-0.6996174,5.0642395,0.9808483,5.0642395,2.6309566
	C44.1481972,32.0136452,41.3548355,33.1525879,39.039875,33.5766869z M51.0488968,23.8259201
	c-3.4558105-4.7511482-8.3458214-4.7952309-13.3435364-4.4492798c2.5810623-3.7825241,7.4408188-7.3351164,13.6448021-7.3008518
	c-0.8198433-2.2934198-2.1368256-4.3514962-3.8245049-6.0387745c-3.817791,0.3908362-5.390049,2.1573639-10.4415665,3.8784056
	c-5.4722061,1.8648129-9.4797554,2.1412334-14.6619167-1.3668747c-1.3545513-0.9167266-2.7879505-2.0878325-4.3504944-3.5628109
	c0.7768631,2.7071991,1.7518997,4.7599659,2.8809261,6.3111877c3.4557095,4.7516508,8.3458214,4.7956324,13.3430328,4.4497814
	c-2.5820637,3.7815237-7.4403133,7.3336134-13.6428967,7.2998495c0.8198433,2.2944221,2.1378269,4.3514977,3.8255062,6.0392761
	c3.8157864-0.3918381,5.3891506-2.1583652,10.4376602-3.8789063c5.4732094-1.8639107,9.4807587-2.1407318,14.6624184,1.3672752
	c1.3550529,0.9173279,2.7884521,2.0884342,4.3499908,3.5629101C53.1524582,27.4303093,52.1769218,25.3781452,51.0488968,23.8259201z
	 M27.8528042,4.7592072c0,1.6501083,1.5600376,3.3309741,5.0632381,2.6314564
	c4.7207909-0.9426756,6.6883965-3.5266426,11.2340584-3.9469342C41.2530441,1.8005244,37.47052,0.7169434,32.960125,1.5461352
	C30.6446629,1.9702741,27.8528042,3.1090991,27.8528042,4.7592072z"/>
<g id="SPA_ZUIVER_5_">
	<g id="ZUIVER_6_">
		<path id="R_6_" class="st0" d="M71.1575012,68.6970367c-0.0635147,0.0205383-0.148674,0.0420837-0.2122955,0.0420837
			c-0.2113037,0-0.4235992-0.127243-0.5077591-0.3395386c0,0-0.4030609-0.9314575-1.0801315-2.1592712
			c-0.5929184-1.1017761-1.5459137-2.6896629-2.668129-3.9811974h-3.2405014v5.8440056
			c0,0.296463-0.2543793,0.5508423-0.5508385,0.5508423s-0.5498352-0.2543793-0.5498352-0.5508423V53.617836
			c0-0.2964592,0.253376-0.5498352,0.5498352-0.5498352h3.8549614c2.8578796,0,4.5955582,2.053669,4.5955582,4.5955544
			c0,2.1388321-1.2504578,3.938118-3.3471069,4.4468765c0.3609772,0.4656792,0.7210617,0.9744377,1.0811386,1.5243721
			c0.4225922,0.6358948,0.8462906,1.3550568,1.2493515,2.0966492c0.698616,1.2709961,1.100769,2.202446,1.1222153,2.2445297
			C71.5811996,68.2518997,71.432518,68.5698013,71.1575012,68.6970367z M63.4486847,61.2846794h3.3041229
			c2.2865067,0,3.4938812-1.631073,3.4938812-3.6211243c0-1.9910469-1.2073746-3.6220207-3.4938812-3.6220207h-3.3041229V61.2846794
			z"/>
		<path id="E_6_" class="st0" d="M57.8130684,68.0394974c0,0.2759247-0.2112999,0.4873199-0.4872169,0.4873199
			c-8.2166786,0-8.2166786,0-8.2166786,0c-0.2964592,0-0.5508347-0.253479-0.5508347-0.5508347V53.617836
			c0-0.2964592,0.2543755-0.5498352,0.5508347-0.5498352h8.2382202c0.2749176,0,0.4862137,0.2112999,0.4862137,0.4872169
			c0,0.2749176-0.2112961,0.4863167-0.4862137,0.4863167h-7.6873817v6.2686081h7.1365433
			c0.2749176,0,0.4872169,0.2122993,0.4872169,0.4872169s-0.2122993,0.4873199-0.4872169,0.4873199h-7.1365433v6.2686043h7.6658401
			C57.6017685,67.5532837,57.8130684,67.7645798,57.8130684,68.0394974z"/>
		<path id="V_6_" class="st0" d="M44.4480934,53.5972977c-0.5087585,2.7952652-1.2289124,5.5690918-2.0546684,8.0259171
			c-0.4657784,1.3345146-0.9529953,2.5839691-1.4822922,3.684639c-0.5508385,1.1858368-1.1437569,2.24543-1.7572098,3.113266
			c-0.0215416,0.0420761-0.0636215,0.0851593-0.1272392,0.127243c-0.1066017,0.0635147-0.2122993,0.1055984-0.3179016,0.1055984
			c-0.1693192,0-0.3385353-0.0841599-0.4452362-0.2328415c-0.6134567-0.867836-1.2063713-1.9274292-1.7572098-3.113266
			c-0.5292969-1.1006699-1.0161133-2.3501244-1.4822922-3.684639c-0.8257561-2.4568253-1.5459137-5.2306519-2.0541687-8.0259171
			c-0.0425797-0.2964592,0.1482773-0.5929184,0.4447365-0.6565361c0.3174973-0.0429802,0.5929184,0.1477776,0.6564369,0.4442368
			c0.995575,5.5485497,2.7102051,10.8221855,4.6377335,13.9559898c1.927433-3.1338043,3.6425629-8.4074402,4.6376381-13.9559898
			c0.0635185-0.2964592,0.3599777-0.4872169,0.6564369-0.4442368
			C44.2993126,53.0043793,44.4901733,53.3008385,44.4480934,53.5972977z"/>
		<path id="I_6_" class="st0" d="M27.3547974,68.1031189V53.490696c0-0.2955551,0.2538776-0.5499344,0.5503368-0.5499344
			s0.550436,0.2543793,0.550436,0.5499344v14.6124229c0,0.296463-0.2539768,0.5508423-0.550436,0.5508423
			S27.3547974,68.3995819,27.3547974,68.1031189z"/>
		<path id="U_6_" class="st0" d="M22.52981,64.0163193c0,2.9645844-2.0752087,4.6376419-4.6376362,4.6376419
			c-2.5624361,0-4.6381264-1.6730576-4.6381264-4.6376419c0,0,0,0,0-10.5256233c0-0.2955551,0.2543898-0.5499344,0.550848-0.5499344
			c0.2964487,0,0.5503464,0.2543793,0.5503464,0.5499344v10.5256233c0,2.3295898,1.588933,3.6642075,3.536932,3.6642075
			c1.9479694,0,3.5364609-1.3346176,3.5364609-3.6642075V53.490696c0-0.2955551,0.2538795-0.5499344,0.5508385-0.5499344
			c0.2964573,0,0.5503368,0.2543793,0.5503368,0.5499344C22.52981,64.0163193,22.52981,64.0163193,22.52981,64.0163193z"/>
		<path id="Z_6_" class="st0" d="M9.7577219,68.0394974c0,0.2759247-0.2118292,0.4873199-0.4867563,0.4873199H1.0538275
			c-0.0846394,0-0.1692688-0.0205383-0.2538982-0.0636215c-0.2749379-0.1477737-0.3810878-0.4872131-0.2328586-0.7406921
			l7.2636776-13.6809692H1.5410653c-0.2754188,0-0.4872378-0.2113991-0.4872378-0.4863167
			c0-0.2759171,0.2118191-0.4872169,0.4872378-0.4872169h7.1369829c0.08463,0,0.1692591,0.0205383,0.2538986,0.0636215
			c0.2749281,0.1476784,0.3810873,0.4656754,0.2328587,0.740593L1.9011235,67.5532837h7.3698421
			C9.5458927,67.5532837,9.7577219,67.7645798,9.7577219,68.0394974z"/>
	</g>
</g>
<g>
	<path class="st0" d="M6.923285,46.9025612c-0.0665317,0-0.1223006-0.0215263-0.1677966-0.0645752
		c-0.045496-0.0440292-0.0684886-0.0988197-0.0684886-0.1653519v-1.8628845H4.761498v1.8628845
		c0,0.0665321-0.0229921,0.1213226-0.0684881,0.1653519c-0.045496,0.0430489-0.101265,0.0645752-0.1677966,0.0645752
		c-0.0660424,0-0.1218114-0.0215263-0.1673074-0.0645752c-0.0459847-0.0440292-0.0684881-0.0988197-0.0684881-0.1653519v-4.1494179
		c0-0.0655518,0.0225034-0.1203423,0.0684881-0.1643715c0.045496-0.0430489,0.101265-0.0645752,0.1673074-0.0645752
		c0.0665317,0,0.1223006,0.0215263,0.1677966,0.0645752c0.045496,0.0440292,0.0684881,0.0988197,0.0684881,0.1643715v1.8638649
		h1.9255018v-1.8638649c0-0.0655518,0.0229926-0.1203423,0.0684886-0.1643715
		c0.045496-0.0430489,0.101265-0.0645752,0.1677966-0.0645752c0.0660424,0,0.1218114,0.0215263,0.1677966,0.0645752
		c0.0454955,0.0440292,0.0679989,0.0988197,0.0679989,0.1643715v4.1494179c0,0.0665321-0.0225034,0.1213226-0.0679989,0.1653519
		C7.0450964,46.8810349,6.9893274,46.9025612,6.923285,46.9025612z"/>
	<path class="st0" d="M10.0414629,46.9025612c-0.2235651,0-0.4349012-0.0352249-0.6335173-0.1056671
		c-0.198616-0.070446-0.3717937-0.1721992-0.5185547-0.3072205c-0.1472502-0.1340408-0.2641697-0.3003693-0.3512478-0.4970322
		c-0.0865889-0.1966591-0.1301279-0.4207115-0.1301279-0.674118v-1.4411926c0-0.25243,0.043539-0.4764824,0.1301279-0.6731415
		c0.0870781-0.1966629,0.2039976-0.3629913,0.3512478-0.4970322c0.1467609-0.1350212,0.3199387-0.237751,0.5185547-0.308197
		c0.198616-0.0694656,0.4099522-0.1046906,0.6335173-0.1046906c0.2235661,0,0.4349012,0.0352249,0.6335173,0.1046906
		c0.1991062,0.070446,0.3727732,0.1731758,0.5219793,0.308197c0.1492071,0.1340408,0.2661266,0.3003693,0.3507586,0.4970322
		c0.0851212,0.1966591,0.1276817,0.4207115,0.1276817,0.6731415v1.4411926c0,0.2534065-0.0425606,0.477459-0.1276817,0.674118
		c-0.0846319,0.1966629-0.2015514,0.3629913-0.3507586,0.4970322c-0.1492062,0.1350212-0.3228731,0.2367744-0.5219793,0.3072205
		C10.4763641,46.8673363,10.265029,46.9025612,10.0414629,46.9025612z M11.2033195,43.8773308
		c0-0.1731796-0.0273952-0.3306999-0.080719-0.4715919c-0.0543013-0.1408882-0.1315956-0.2631912-0.2333488-0.3669014
		c-0.101265-0.1027336-0.2235661-0.1829605-0.3664131-0.2387314c-0.1428471-0.0557671-0.3033056-0.0841446-0.4813757-0.0841446
		S9.7029343,42.744339,9.5600872,42.800106C9.4172401,42.8558769,9.29494,42.9361038,9.193675,43.0388374
		c-0.1017542,0.1037102-0.1790485,0.2260132-0.2328606,0.3669014c-0.053813,0.140892-0.080719,0.2984123-0.080719,0.4715919
		v1.4411926c0,0.1741562,0.026906,0.3316765,0.080719,0.4725685c0.053812,0.1408882,0.1311064,0.2631912,0.2328606,0.3659248
		c0.101265,0.1037102,0.2235651,0.1839371,0.3664122,0.2397079c0.1428471,0.0557671,0.3033056,0.0841408,0.4813757,0.0841408
		s0.3385286-0.0283737,0.4813757-0.0841408c0.1428471-0.0557709,0.2651482-0.1359978,0.3664131-0.2397079
		c0.1017532-0.1027336,0.1790476-0.2250366,0.2333488-0.3659248c0.0533237-0.140892,0.080719-0.2984123,0.080719-0.4725685
		V43.8773308z"/>
	<path class="st0" d="M15.7377396,42.7531433h-1.1427774v3.9194908c0,0.0665321-0.0229931,0.1213226-0.0684891,0.1653519
		c-0.045496,0.0430489-0.1017542,0.0645752-0.1677961,0.0645752c-0.0660429,0-0.1223011-0.0215263-0.1677961-0.0645752
		c-0.045496-0.0440292-0.0679998-0.0988197-0.0679998-0.1653519v-3.9194908h-1.1432667
		c-0.0577259,0-0.1086025-0.020546-0.1521416-0.0616417c-0.043539-0.0410919-0.0650644-0.090992-0.0650644-0.1496925
		c0-0.0577278,0.0215254-0.1076279,0.0650644-0.1487198s0.0944157-0.0616379,0.1521416-0.0616379h2.7581253
		c0.0577259,0,0.1086025,0.020546,0.1521416,0.0616379s0.0650644,0.090992,0.0650644,0.1487198
		c0,0.0587006-0.0215254,0.1086006-0.0650644,0.1496925C15.8463421,42.7325974,15.7954655,42.7531433,15.7377396,42.7531433z"/>
	<path class="st0" d="M19.7257195,42.7531433h-2.1803761v1.6339378h2.01894c0.0577259,0,0.1086025,0.020546,0.1521416,0.0626183
		c0.043539,0.0410919,0.0650635,0.0909882,0.0650635,0.148716c0,0.057724-0.0215244,0.1076241-0.0650635,0.148716
		c-0.043539,0.0420723-0.0944157,0.0626183-0.1521416,0.0626183h-2.01894v1.6339378h2.174017
		c0.0582142,0,0.1086025,0.020546,0.1521416,0.0616417c0.043539,0.0410919,0.0650635,0.0909882,0.0650635,0.148716
		c0,0.0587044-0.0215244,0.1086044-0.0650635,0.1496964s-0.0939274,0.0616379-0.1521416,0.0616379h-2.4103012
		c-0.0660439,0-0.1218128-0.0215225-0.1673088-0.0645752c-0.0459843-0.0440254-0.0684872-0.0988159-0.0684872-0.1653481v-4.0740814
		c0-0.0665321,0.0225029-0.1213226,0.0684872-0.1653481c0.045496-0.0430527,0.101265-0.0645752,0.1673088-0.0645752h2.4166603
		c0.0577259,0,0.1086025,0.020546,0.1521416,0.0616379s0.0650654,0.090992,0.0650654,0.1487198
		c0,0.0587006-0.0215263,0.1086006-0.0650654,0.1496925C19.834322,42.7325974,19.7834454,42.7531433,19.7257195,42.7531433z"/>
	<path class="st0" d="M23.8687782,46.8653793h-2.4103031c-0.0660419,0-0.1218109-0.0215225-0.1673069-0.0645752
		c-0.0459843-0.0440254-0.0684891-0.0988159-0.0684891-0.1653481v-4.1122398c0-0.0655518,0.0225048-0.1203423,0.0684891-0.1643715
		c0.045496-0.0430489,0.101265-0.0645752,0.1673069-0.0645752c0.0665321,0,0.1223011,0.0215263,0.1677971,0.0645752
		c0.045496,0.0440292,0.0684891,0.0988197,0.0684891,0.1643715v3.9204712h2.174017
		c0.0582142,0,0.1086025,0.020546,0.1521416,0.0616417c0.043539,0.0410919,0.0650635,0.0909882,0.0650635,0.148716
		c0,0.0587044-0.0215244,0.1086044-0.0650635,0.1496964S23.9269924,46.8653793,23.8687782,46.8653793z"/>
	<path class="st0" d="M30.4407272,46.9025612c-0.0787621,0-0.144804-0.033268-0.1986179-0.0988197l-0.3292332-0.4226723
		c-0.1697521,0.1741562-0.3688583,0.3042831-0.5963383,0.3913612c-0.2279682,0.0870781-0.4720802,0.1301308-0.7328243,0.1301308
		c-0.4265862,0-0.7621784-0.1320877-1.0062904-0.3972321c-0.1081142-0.1203461-0.1898098-0.2543869-0.2455807-0.4040833
		c-0.055769-0.148716-0.0836525-0.308197-0.0836525-0.4784393c0-0.1692657,0.0278835-0.322876,0.0836525-0.4588737
		c0.0557709-0.1369743,0.1306171-0.2602539,0.2235661-0.3698349c0.0934391-0.109581,0.2000847-0.2093811,0.3199387-0.2984161
		c0.1203442-0.089035,0.2421551-0.1682854,0.3664131-0.2387314c-0.0244598-0.0332642-0.0484314-0.0635948-0.0714226-0.0900116
		c-0.0225048-0.0273972-0.0445175-0.0567474-0.0650654-0.0900154c-0.0332661-0.0420685-0.064085-0.0831642-0.0929489-0.1242561
		c-0.0293522-0.0420723-0.0562572-0.0851212-0.0812073-0.1311073c-0.0494099-0.0870781-0.090992-0.1761131-0.1237679-0.2671013
		c-0.0332661-0.090992-0.0498981-0.1858978-0.0498981-0.2856979c0-0.1692619,0.0317974-0.3150444,0.0963726-0.4373436
		c0.064085-0.122303,0.1467609-0.2240562,0.2485142-0.304287c0.101265-0.0812073,0.2162285-0.1399117,0.3443985-0.1770897
		c0.1286621-0.0371819,0.2548752-0.0557709,0.3791332-0.0557709c0.1408901,0,0.2719955,0.0117416,0.3942966,0.0371819
		c0.1223011,0.0244598,0.2309036,0.0635948,0.3262997,0.1174088c0.1242561,0.0704422,0.2255211,0.1555634,0.3042831,0.2553635
		c0.0787621,0.0988159,0.117897,0.1839409,0.117897,0.2543831c0,0.0616417-0.0239697,0.1164322-0.0714226,0.1643715
		c-0.0474529,0.0479431-0.1046886,0.0714264-0.1707325,0.0714264c-0.045496,0-0.0816956-0.012722-0.1086025-0.0371819
		s-0.0508766-0.0518532-0.0714226-0.0812073c-0.107626-0.1448021-0.2299271-0.2387314-0.3664131-0.2817802
		c-0.1369781-0.0440292-0.2548752-0.0655518-0.3541832-0.0655518c-0.070446,0-0.1399117,0.0127182-0.2079105,0.037178
		c-0.0684891,0.0244598-0.1296387,0.0596848-0.1834526,0.1056671c-0.053812,0.0459862-0.0973511,0.1027336-0.1306171,0.1712227
		c-0.0332642,0.0675087-0.049408,0.1477394-0.049408,0.2387314c0,0.057724,0.0112514,0.1164284,0.0342426,0.1741562
		c0.0225048,0.057724,0.0547924,0.1203423,0.0958843,0.1858978c0.0415821,0.0665283,0.0851212,0.130127,0.1306171,0.1898079
		c0.045496,0.0596848,0.090992,0.1193657,0.136488,0.1770935l1.2489338,1.5840378
		c0.0577259-0.1125183,0.1042004-0.2406883,0.1394234-0.3854942c0.035223-0.1448021,0.0572357-0.295475,0.0655537-0.4529991
		c0.0039139-0.0753365,0.0308189-0.130127,0.0807171-0.1653519c0.0494099-0.0342445,0.1032219-0.0528336,0.161438-0.0528336
		c0.0660419,0,0.1218109,0.0234833,0.1677971,0.0684891c0.0161419,0.0166321,0.0317974,0.0381584,0.0464725,0.0655518
		c0.0141869,0.0273972,0.0195694,0.0606613,0.0156555,0.1027336c-0.0044022,0.0821877-0.0136986,0.1770897-0.0283737,0.2827606
		c-0.0141869,0.1056671-0.0362015,0.2132912-0.0650635,0.3228722c-0.0288639,0.109581-0.0650654,0.219162-0.1086044,0.328743
		s-0.0944157,0.2084007-0.1521416,0.2954788l0.4035931,0.5156212c0.037178,0.0498962,0.055769,0.0988197,0.055769,0.148716
		c0,0.0626183-0.0244598,0.1174088-0.0743599,0.1643715C30.5591145,46.8790779,30.5028553,46.9025612,30.4407272,46.9025612z
		 M29.6208229,46.0141678l-1.0992393-1.4030342c-0.099308,0.0538139-0.1966591,0.1134949-0.2920532,0.180027
		s-0.180027,0.1399117-0.2548752,0.2201424c-0.074358,0.0812073-0.134531,0.1712189-0.180027,0.2700386
		c-0.0454941,0.0997963-0.0684872,0.211338-0.0684872,0.3355942c0,0.1037102,0.0166321,0.2054634,0.0498981,0.3042831
		c0.0332661,0.0997963,0.0860996,0.1898117,0.1585026,0.2700386c0.072401,0.0812111,0.163393,0.1467628,0.272974,0.1956825
		c0.1100712,0.0499001,0.2392197,0.0753365,0.3884277,0.0753365C29.0186138,46.4622765,29.3600769,46.3125801,29.6208229,46.0141678
		z"/>
	<path class="st0" d="M38.218071,44.8528023c-0.070446,0.1907883-0.140892,0.3747292-0.2113342,0.5527992
		c-0.070446,0.1780663-0.1448059,0.3463554-0.2240562,0.5038757c-0.1692657,0.3473358-0.3434219,0.6437912-0.5214882,0.8874168
		c-0.0450096,0.0665283-0.1095848,0.0997963-0.192749,0.0997963c-0.037178,0-0.0733795-0.0068512-0.1086006-0.0215263
		c-0.0352249-0.0146751-0.0626183-0.0381584-0.0831642-0.0714226c-0.0919724-0.12817-0.1810074-0.2661247-0.2671051-0.4128876
		c-0.0870781-0.1477394-0.1721992-0.308197-0.2553635-0.4813766c-0.0582161-0.1203423-0.1130066-0.2426414-0.1648636-0.3669014
		c-0.0518532-0.1242561-0.1041985-0.2524261-0.1580124-0.3854904c-0.0538101,0.1330643-0.1066437,0.2622108-0.1585007,0.3884277
		c-0.051857,0.1262131-0.1066475,0.2475357-0.1648598,0.3639641c-0.0826759,0.1731796-0.1673088,0.3346176-0.2543869,0.4843102
		c-0.0870781,0.1487198-0.1761131,0.2856979-0.2671051,0.4099541c-0.0454941,0.0655518-0.1100693,0.0988197-0.1927452,0.0988197
		s-0.1467628-0.033268-0.1922569-0.0988197c-0.0914803-0.1242561-0.1805153-0.2612343-0.2671051-0.4099541
		c-0.0870781-0.1496925-0.1721992-0.3111305-0.2548752-0.4843102c-0.0787621-0.1575203-0.1531181-0.3248291-0.2235641-0.5009422
		c-0.070446-0.1751328-0.140892-0.3610306-0.2113342-0.5557327c-0.1242599-0.3512497-0.2372665-0.7210846-0.3385315-1.1085358
		c-0.101265-0.3874474-0.1893196-0.7817459-0.2641678-1.1828918c-0.0122299-0.0626183,0-0.1193657,0.0376701-0.1712189
		c0.037178-0.051857,0.086586-0.0821877,0.148716-0.0900154c0.0665321-0.0127182,0.1262131-0.0009766,0.1805153,0.0342445
		c0.0533218,0.0352211,0.0846329,0.0841446,0.0929489,0.1457825c0.070446,0.3806,0.1521416,0.7523956,0.2455788,1.1153831
		c0.0929489,0.362011,0.1956825,0.707386,0.3072205,1.0371094c0.1120262,0.328743,0.2299232,0.63694,0.3541832,0.9226341
		c0.1242561,0.2856979,0.2524261,0.540081,0.3850021,0.7641373c0.1448021-0.2446022,0.2847176-0.5254059,0.4192467-0.8424072
		c0.1345291-0.3160248,0.2622108-0.6594467,0.3820686-1.0273247l0.018589-0.0684891
		c0.0454941-0.0870781,0.117897-0.1311073,0.2176933-0.1311073c0.099308,0,0.171711,0.0440292,0.2172089,0.1311073
		l0.018589,0.0616379c0.1159401,0.3688583,0.2426453,0.7112999,0.3796196,1.0283051
		c0.1359978,0.3170013,0.2768898,0.597805,0.4216919,0.8414268c0.1330643-0.2230759,0.2612343-0.477459,0.3854942-0.7611961
		c0.1242561-0.2827606,0.2406883-0.5899811,0.3512459-0.9187241c0.109581-0.3297234,0.211338-0.6760788,0.3042831-1.0410233
		c0.0929489-0.3639679,0.1751366-0.7347832,0.2455826-1.1114693c0.0117378-0.0616379,0.0450058-0.1115379,0.0988159-0.148716
		c0.0538139-0.0371819,0.1134987-0.0499001,0.180027-0.0371819c0.0626183,0.0117416,0.1115379,0.0440292,0.1496964,0.0958862
		c0.0371819,0.0518532,0.0489197,0.1086006,0.0371819,0.1712189c-0.0753403,0.4011459-0.1624184,0.7954445-0.2641716,1.1828918
		C38.4548454,44.1317177,38.3423271,44.5015526,38.218071,44.8528023z"/>
	<path class="st0" d="M42.5974121,42.7531433h-2.1808624v1.6339378h2.0194283c0.057724,0,0.1086006,0.020546,0.1516533,0.0626183
		c0.0440254,0.0410919,0.0655518,0.0909882,0.0655518,0.148716c0,0.057724-0.0215263,0.1076241-0.0655518,0.148716
		c-0.0430527,0.0420723-0.0939293,0.0626183-0.1516533,0.0626183h-2.0194283v1.6339378h2.174015
		c0.0587044,0,0.1086044,0.020546,0.1526299,0.0616417c0.0430527,0.0410919,0.0645752,0.0909882,0.0645752,0.148716
		c0,0.0587044-0.0215225,0.1086044-0.0645752,0.1496964c-0.0440254,0.0410919-0.0939255,0.0616379-0.1526299,0.0616379h-2.4098129
		c-0.0665321,0-0.1222992-0.0215225-0.167305-0.0645752c-0.0459862-0.0440254-0.0684891-0.0988159-0.0684891-0.1653481v-4.0740814
		c0-0.0665321,0.0225029-0.1213226,0.0684891-0.1653481c0.0450058-0.0430527,0.1007729-0.0645752,0.167305-0.0645752h2.4166603
		c0.0577278,0,0.1086044,0.020546,0.1516533,0.0616379c0.0440292,0.0410919,0.0655556,0.090992,0.0655556,0.1487198
		c0,0.0587006-0.0215263,0.1086006-0.0655556,0.1496925C42.7060165,42.7325974,42.6551399,42.7531433,42.5974121,42.7531433z"/>
	<path class="st0" d="M46.7399826,46.8653793h-2.4098129c-0.0665321,0-0.1222992-0.0215225-0.1673088-0.0645752
		c-0.0459824-0.0440254-0.0684853-0.0988159-0.0684853-0.1653481v-4.1122398c0-0.0655518,0.0225029-0.1203423,0.0684853-0.1643715
		c0.0450096-0.0430489,0.1007767-0.0645752,0.1673088-0.0645752s0.1222992,0.0215263,0.1673088,0.0645752
		c0.0459824,0.0440292,0.0684853,0.0988197,0.0684853,0.1643715v3.9204712h2.1740189
		c0.0587044,0,0.1086044,0.020546,0.1526299,0.0616417c0.0430527,0.0410919,0.0645752,0.0909882,0.0645752,0.148716
		c0,0.0587044-0.0215225,0.1086044-0.0645752,0.1496964C46.848587,46.8448334,46.798687,46.8653793,46.7399826,46.8653793z"/>
	<path class="st0" d="M50.8894005,46.8653793h-2.4098129c-0.0665321,0-0.122303-0.0215225-0.1673088-0.0645752
		c-0.0459824-0.0440254-0.0684891-0.0988159-0.0684891-0.1653481v-4.1122398c0-0.0655518,0.0225067-0.1203423,0.0684891-0.1643715
		c0.0450058-0.0430489,0.1007767-0.0645752,0.1673088-0.0645752s0.1222992,0.0215263,0.167305,0.0645752
		c0.0459862,0.0440292,0.0684891,0.0988197,0.0684891,0.1643715v3.9204712h2.1740189
		c0.0587044,0,0.1086006,0.020546,0.1526299,0.0616417c0.0430489,0.0410919,0.0645752,0.0909882,0.0645752,0.148716
		c0,0.0587044-0.0215263,0.1086044-0.0645752,0.1496964C50.9980011,46.8448334,50.9481049,46.8653793,50.8894005,46.8653793z"/>
	<path class="st0" d="M55.5740051,46.8966904c-0.0127182,0.0039139-0.033268,0.0058708-0.0626183,0.0058708
		c-0.0870781,0-0.1536102-0.0371819-0.198616-0.1115379c-0.2817802-0.4432182-0.6203079-0.9627533-1.0155869-1.5586014
		c-0.3962517-0.5968285-0.8727379-1.268013-1.4323845-2.0125809v3.4527931c0,0.0665321-0.0225029,0.1213226-0.0684891,0.1653519
		c-0.0450058,0.0430489-0.1007729,0.0645752-0.167305,0.0645752s-0.122303-0.0215263-0.1673088-0.0645752
		c-0.0459862-0.0440292-0.0684891-0.0988197-0.0684891-0.1653519v-4.1494179c0-0.0489197,0.0156555-0.0939255,0.0459862-0.1330605
		c0.0313072-0.0391388,0.0694656-0.0675125,0.1154518-0.0841446c0.0499001-0.0166321,0.0978394-0.0176125,0.1457825-0.0029335
		c0.0479431,0.0146751,0.0880547,0.0430489,0.1213226,0.0841408c0.5381241,0.6995621,1.0067787,1.3394394,1.4069481,1.919632
		c0.399189,0.579216,0.7484779,1.0987511,1.0468941,1.5586014v-3.3422356c0-0.0655518,0.0225029-0.1203423,0.0684853-0.1643715
		c0.0450096-0.0430489,0.1007767-0.0645752,0.1673088-0.0645752s0.1222992,0.0215263,0.1673088,0.0645752
		c0.0459824,0.0440292,0.0684853,0.0988197,0.0684853,0.1643715v4.1494179
		C55.7471809,46.7890663,55.6894569,46.8634224,55.5740051,46.8966904z"/>
	<path class="st0" d="M59.6862411,42.7531433h-2.1808624v1.6339378h2.0194283c0.057724,0,0.1086006,0.020546,0.1516533,0.0626183
		c0.0440254,0.0410919,0.0655518,0.0909882,0.0655518,0.148716c0,0.057724-0.0215263,0.1076241-0.0655518,0.148716
		c-0.0430527,0.0420723-0.0939293,0.0626183-0.1516533,0.0626183h-2.0194283v1.6339378h2.1749916
		c0.0577278,0,0.1086044,0.020546,0.1516533,0.0616417c0.0440292,0.0410919,0.0655556,0.0909882,0.0655556,0.148716
		c0,0.0587044-0.0215263,0.1086044-0.0655556,0.1496964c-0.0430489,0.0410919-0.0939255,0.0616379-0.1516533,0.0616379h-2.4107895
		c-0.0665321,0-0.1222992-0.0215225-0.1673088-0.0645752c-0.0459824-0.0440254-0.0684853-0.0988159-0.0684853-0.1653481v-4.0740814
		c0-0.0665321,0.0225029-0.1213226,0.0684853-0.1653481c0.0450096-0.0430527,0.1007767-0.0645752,0.1673088-0.0645752h2.4166603
		c0.0577278,0,0.1086044,0.020546,0.1516533,0.0616379c0.0440292,0.0410919,0.0655556,0.090992,0.0655556,0.1487198
		c0,0.0587006-0.0215263,0.1086006-0.0655556,0.1496925C59.7948456,42.7325974,59.743969,42.7531433,59.6862411,42.7531433z"/>
	<path class="st0" d="M62.4561081,46.9025612c-0.289608,0-0.5537758-0.070446-0.7915306-0.211338
		c-0.237751-0.1399117-0.4148445-0.328743-0.5312729-0.564537c-0.0244598-0.0577278-0.0254402-0.1174088-0.0029373-0.1770935
		c0.0225067-0.0606613,0.0626183-0.1027336,0.1213226-0.1271935c0.0577278-0.0293503,0.1174088-0.0322876,0.180027-0.0097809
		c0.0616417,0.0225029,0.1076241,0.0635948,0.1369781,0.1213188c0.0694656,0.1575241,0.1858978,0.2876511,0.347332,0.3913651
		c0.161438,0.1037102,0.341465,0.1555634,0.540081,0.1555634c0.1330643,0,0.2583008-0.0244598,0.3766861-0.0714226
		c0.1174088-0.0479393,0.2201424-0.109581,0.3072205-0.1868744c0.0870781-0.0763168,0.1555672-0.1653519,0.2044868-0.2671051
		c0.0498962-0.1017532,0.0753365-0.2084007,0.0753365-0.3199387c0-0.1780701-0.0782738-0.3346138-0.2338409-0.4686546
		c-0.1545868-0.1350212-0.4187546-0.2514496-0.7915268-0.3512497c-0.4021263-0.1076241-0.7122803-0.2661247-0.9314423-0.4755058
		c-0.2201424-0.2083969-0.3297234-0.4686546-0.3297234-0.7788086c0-0.1741562,0.0352211-0.3385277,0.1056671-0.4940948
		s0.1653519-0.289608,0.2856941-0.4040833c0.1203461-0.1134949,0.2602577-0.2035065,0.419735-0.2700386
		c0.159481-0.0665321,0.3297234-0.0988197,0.5117073-0.0988197c0.2866745,0,0.5430145,0.0772934,0.7709846,0.2328606
		c0.2269897,0.1545906,0.3884277,0.3629875,0.4843102,0.6242218c0.020546,0.0577278,0.0176125,0.1144753-0.0097847,0.1702461
		c-0.0264168,0.0557671-0.0714226,0.094902-0.1330643,0.1154518c-0.0626183,0.020546-0.1232796,0.0176086-0.1829605-0.0097847
		c-0.0606613-0.0264168-0.1007767-0.0694695-0.1213226-0.1271935c-0.0587044-0.1692657-0.161438-0.3091774-0.3111343-0.419735
		c-0.148716-0.109581-0.3140678-0.1643753-0.4970284-0.1643753c-0.1154518,0-0.2250328,0.0234833-0.328743,0.0684891
		c-0.1037102,0.0459862-0.1937256,0.1076241-0.2700424,0.1868782c-0.0772934,0.07827-0.1379547,0.1682854-0.1829605,0.2700386
		c-0.0459862,0.1007767-0.0684891,0.2074203-0.0684891,0.3199387c0,0.1858978,0.0733795,0.347332,0.2201424,0.4843102
		c0.146759,0.1369781,0.3776627,0.2485161,0.6927109,0.3355942c0.2025299,0.0538101,0.3815765,0.1134949,0.5371437,0.180027
		c0.1555672,0.0665283,0.2886314,0.1428452,0.4011459,0.2299232c0.289608,0.219162,0.4344139,0.500946,0.4344139,0.8443642
		c0,0.1780701-0.0381584,0.3443985-0.1144753,0.4970322c-0.0772934,0.1536064-0.1810036,0.2866707-0.3111305,0.4011459
		c-0.1301308,0.1134949-0.2827606,0.2035065-0.4569168,0.2700386
		C62.8357277,46.8692932,62.6508102,46.9025612,62.4561081,46.9025612z"/>
	<path class="st0" d="M66.2572098,46.9025612c-0.2896042,0-0.553772-0.070446-0.7915268-0.211338
		c-0.2377548-0.1399117-0.4148407-0.328743-0.5312729-0.564537c-0.0244598-0.0577278-0.0254364-0.1174088-0.0029373-0.1770935
		c0.0225067-0.0606613,0.0626221-0.1027336,0.1213226-0.1271935c0.057724-0.0293503,0.1174088-0.0322876,0.1800308-0.0097809
		c0.0616379,0.0225029,0.1076202,0.0635948,0.1369705,0.1213188c0.0694733,0.1575241,0.1858978,0.2876511,0.3473358,0.3913651
		c0.161438,0.1037102,0.3414612,0.1555634,0.5400772,0.1555634c0.1330643,0,0.2583008-0.0244598,0.3766861-0.0714226
		c0.1174088-0.0479393,0.2201462-0.109581,0.3072205-0.1868744c0.0870819-0.0763168,0.155571-0.1653519,0.2044907-0.2671051
		c0.0498962-0.1017532,0.0753326-0.2084007,0.0753326-0.3199387c0-0.1780701-0.07827-0.3346138-0.2338333-0.4686546
		c-0.1545944-0.1350212-0.4187622-0.2514496-0.7915344-0.3512497c-0.4021225-0.1076241-0.7122803-0.2661247-0.9314423-0.4755058
		c-0.2201385-0.2083969-0.3297195-0.4686546-0.3297195-0.7788086c0-0.1741562,0.0352249-0.3385277,0.1056671-0.4940948
		s0.1653519-0.289608,0.2856979-0.4040833c0.1203384-0.1134949,0.2602539-0.2035065,0.4197311-0.2700386
		c0.1594849-0.0665321,0.3297272-0.0988197,0.5117035-0.0988197c0.2866745,0,0.5430222,0.0772934,0.7709885,0.2328606
		c0.2269897,0.1545906,0.3884277,0.3629875,0.4843063,0.6242218c0.020546,0.0577278,0.0176163,0.1144753-0.0097809,0.1702461
		c-0.0264206,0.0557671-0.0714264,0.094902-0.1330643,0.1154518c-0.0626144,0.020546-0.1232758,0.0176086-0.1829605-0.0097847
		c-0.0606613-0.0264168-0.1007767-0.0694695-0.1213226-0.1271935c-0.0587082-0.1692657-0.161438-0.3091774-0.3111343-0.419735
		c-0.1487198-0.109581-0.314064-0.1643753-0.4970322-0.1643753c-0.115448,0-0.225029,0.0234833-0.328743,0.0684891
		c-0.1037064,0.0459862-0.1937256,0.1076241-0.2700348,0.1868782c-0.0772934,0.07827-0.1379547,0.1682854-0.1829681,0.2700386
		c-0.0459824,0.1007767-0.0684814,0.2074203-0.0684814,0.3199387c0,0.1858978,0.0733795,0.347332,0.2201385,0.4843102
		s0.3776627,0.2485161,0.6927109,0.3355942c0.2025299,0.0538101,0.3815765,0.1134949,0.5371475,0.180027
		c0.1555634,0.0665283,0.2886276,0.1428452,0.4011459,0.2299232c0.2896042,0.219162,0.4344101,0.500946,0.4344101,0.8443642
		c0,0.1780701-0.0381622,0.3443985-0.1144714,0.4970322c-0.077301,0.1536064-0.1810074,0.2866707-0.3111343,0.4011459
		c-0.130127,0.1134949-0.2827606,0.2035065-0.4569168,0.2700386C66.6368332,46.8692932,66.4519196,46.9025612,66.2572098,46.9025612
		z"/>
</g>
</svg>
